<?xml version="1.0" encoding="UTF-8"?>
<svg xmlns="http://www.w3.org/2000/svg" viewBox="0 0 533.5 544.3">
  <title>Google G Logo (Color)</title>
  <desc>Multicolor Google G mark</desc>
  <path fill="#4285F4" d="M533.5 278.4c0-17.4-1.4-34.1-4.1-50.4H272v95.3h147.4c-6.3 33.7-25 62.3-53.3 81.5v67.5h86.1c50.3-46.4 81.3-114.8 81.3-193.9z"/>
  <path fill="#34A853" d="M272 544.3c72.4 0 133.2-23.9 177.6-64.9l-86.1-67.5c-23.9 16-54.5 25.5-91.5 25.5-70.5 0-130.2-47.6-151.5-111.6H32.7v69.9c44.8 88.6 137.6 148.6 239.3 148.6z"/>
  <path fill="#FBBC05" d="M120.5 325.8c-10.4-30.9-10.4-64.2 0-95.1V160.8H32.7c-37.8 75.7-37.8 164.2 0 239.9l87.8-74.9z"/>
  <path fill="#EA4335" d="M272 107.7c39.4 0 74.9 13.6 102.8 40.2l77.2-77.2C405 24.2 344.3 0 272 0c-101.7 0-194.5 60-239.3 148.6l87.8 69.9C141.8 155.3 201.5 107.7 272 107.7z"/>
</svg>
